<?xml version="1.0" encoding="UTF-8" standalone="no"?>
<svg
   height="32.002438"
   viewBox="0 0 24.877821 32.002438"
   width="24.877821"
   version="1.1"
   id="svg112"
   sodipodi:docname="dblp.svg"
   inkscape:version="1.2.2 (b0a8486541, 2022-12-01)"
   xmlns:inkscape="http://www.inkscape.org/namespaces/inkscape"
   xmlns:sodipodi="http://sodipodi.sourceforge.net/DTD/sodipodi-0.dtd"
   xmlns="http://www.w3.org/2000/svg"
   xmlns:svg="http://www.w3.org/2000/svg">
  <defs
     id="defs116" />
  <sodipodi:namedview
     id="namedview114"
     pagecolor="#ffffff"
     bordercolor="#000000"
     borderopacity="0.25"
     inkscape:showpageshadow="2"
     inkscape:pageopacity="0.0"
     inkscape:pagecheckerboard="0"
     inkscape:deskcolor="#d1d1d1"
     showgrid="false"
     inkscape:zoom="19.246563"
     inkscape:cx="12.625631"
     inkscape:cy="13.846628"
     inkscape:window-width="1912"
     inkscape:window-height="1052"
     inkscape:window-x="4"
     inkscape:window-y="24"
     inkscape:window-maximized="0"
     inkscape:current-layer="svg112" />
  <path
     d="m 24.84141,19.438219 -3.266,-12.2079996 c 0,0 -0.203,-0.792 -0.964,-0.443 l -7.464,3.4689996 1.146,4.266 1.453,5.438 0.01,0.083 c 0.068,0.625 -0.547,1.052 -0.547,1.052 l -2.505,1.161 0.667,2.516 0.052,0.135 c 0.094,0.229 0.375,0.802 1.083,1.214 l 9.266,5.693 c 0,0 0.906,0.547 0.693,-0.224 l -2.641,-9.87 2.479,-1.146 c 0,0 0.75,-0.344 0.536,-1.135 z m -10.052,0.125 -0.016,-0.083 -1.505,-5.625 -1.776,-6.5889996 v -0.052 c 0,0 -0.214,-0.786 -1.12,-1.333 L 1.1064102,0.18821936 c 0,0 -0.906,-0.547 -0.693,0.224 l 2.651,9.89599964 -2.49,1.161 c 0,0 -0.75,0.344 -0.536,1.13 l 3.266,12.214 c 0,0 0.214,0.786 0.964,0.443 l 9.9579998,-4.641 c 0,0 0.693,-0.323 0.563,-1.052 z"
     id="path110"
     style="fill:white;fill-opacity:1" />
</svg>
